<svg xmlns="http://www.w3.org/2000/svg" width="210.777" height="381.386" viewBox="0 0 210.777 381.386">
  <g id="Group_2" data-name="Group 2" transform="translate(-337.097 -301.614)">
    <g id="Group_1" data-name="Group 1" transform="translate(-14 20)">
      <circle id="Ellipse_1" data-name="Ellipse 1" cx="2.624" cy="2.624" r="2.624" transform="translate(443.857 281.614)" fill="#ccc"/>
      <circle id="Ellipse_2" data-name="Ellipse 2" cx="5.185" cy="5.185" r="5.185" transform="translate(435.704 381.773)" fill="#ccc"/>
      <circle id="Ellipse_3" data-name="Ellipse 3" cx="2.996" cy="2.996" r="2.996" transform="translate(351.097 366.186)" fill="#ccc"/>
      <circle id="Ellipse_4" data-name="Ellipse 4" cx="3.244" cy="3.244" r="3.244" transform="translate(396.361 316.636)" fill="#ccc"/>
      <circle id="Ellipse_5" data-name="Ellipse 5" cx="2.624" cy="2.624" r="2.624" transform="translate(556.625 507.823)" fill="#ccc"/>
      <circle id="Ellipse_6" data-name="Ellipse 6" cx="5.185" cy="5.185" r="5.185" transform="translate(468.116 448.738)" fill="#ccc"/>
      <circle id="Ellipse_7" data-name="Ellipse 7" cx="2.996" cy="2.996" r="2.996" transform="translate(529.343 384.866)" fill="#ccc"/>
      <circle id="Ellipse_8" data-name="Ellipse 8" cx="3.244" cy="3.244" r="3.244" transform="translate(548.795 448.758)" fill="#ccc"/>
      <circle id="Ellipse_23" data-name="Ellipse 23" cx="43.067" cy="43.067" r="43.067" transform="translate(429.61 514.286)" fill="#898989"/>
      <rect id="Rectangle_5" data-name="Rectangle 5" width="13.084" height="23.442" transform="translate(453.053 591.153)" fill="#898989"/>
      <rect id="Rectangle_6" data-name="Rectangle 6" width="13.084" height="23.442" transform="translate(479.22 591.153)" fill="#898989"/>
      <ellipse id="Ellipse_24" data-name="Ellipse 24" cx="10.903" cy="4.089" rx="10.903" ry="4.089" transform="translate(453.052 610.779)" fill="#898989"/>
      <ellipse id="Ellipse_25" data-name="Ellipse 25" cx="10.903" cy="4.089" rx="10.903" ry="4.089" transform="translate(479.219 610.234)" fill="#898989"/>
      <path id="Path_11" data-name="Path 11" d="M554.573,595.712c-3.477-15.574,7.639-31.31,24.829-35.149s33.944,5.675,37.422,21.249-7.915,21.318-25.1,25.156S558.05,611.286,554.573,595.712Z" transform="translate(-123.672 -78.41)" fill="#d4d4d4"/>
      <ellipse id="Ellipse_26" data-name="Ellipse 26" cx="23.892" cy="7.501" rx="23.892" ry="7.501" transform="translate(491.585 544.829) rotate(-45.022)" fill="#898989"/>
      <ellipse id="Ellipse_27" data-name="Ellipse 27" cx="7.501" cy="23.892" rx="7.501" ry="23.892" transform="translate(398.88 524.635) rotate(-44.978)" fill="#898989"/>
      <path id="Path_23" data-name="Path 23" d="M677.51,697.589h-157a1,1,0,0,1,0-2h157a1,1,0,0,1,0,2Z" transform="translate(-123.672 -78.41)" fill="#ccc"/>
      <circle id="Ellipse_28" data-name="Ellipse 28" cx="14.719" cy="14.719" r="14.719" transform="translate(456.146 536.531)" fill="#fff"/>
      <circle id="Ellipse_29" data-name="Ellipse 29" cx="4.906" cy="4.906" r="4.906" transform="translate(465.959 546.344)" fill="#3f3d56"/>
      <path id="Path_24" data-name="Path 24" d="M606.222,656.883a9.572,9.572,0,0,1-18.835,3.429h0l0-.018c-.942-5.2,3.08-7.043,8.283-7.985S605.281,651.681,606.222,656.883Z" transform="translate(-123.672 -78.41)" fill="#fff"/>
    </g>
    <text id="No_Tasks" data-name="No Tasks" transform="translate(422 678)" fill="#707070" font-size="20" font-family="SegoeUI-Semibold, Segoe UI" font-weight="600"><tspan x="0" y="0">No Tasks</tspan></text>
  </g>
</svg>
